<svg version="1.1" xmlns="http://www.w3.org/2000/svg" xmlns:xlink="http://www.w3.org/1999/xlink" x="0px" y="0px" viewBox="0 0 386.309 500.001" enable-background="new 0 0 386.309 500.001" xml:space="preserve" style="position: absolute;">
<g>
	<path fill="#C9D439" d="M386.309,193.154c0,106.676-86.479,193.15-193.154,193.15S0,299.83,0,193.154C0,86.475,86.479,0,193.154,0
		S386.309,86.475,386.309,193.154z" class="color color-1" data-color="#C9D439"></path>
</g>
<g>
	<path fill="#9EB11E" d="M314.037,115.125c0,23.757-19.261,43.014-43.018,43.014s-43.018-19.257-43.018-43.014
		s19.261-43.006,43.018-43.006S314.037,91.368,314.037,115.125z" class="color color-2" data-color="#9EB11E"></path>
	<path fill="#9EB11E" d="M158.46,137.261c0,28.688-23.264,51.952-51.948,51.952c-28.696,0-51.956-23.264-51.956-51.952
		c0-28.692,23.26-51.944,51.956-51.944C135.196,85.316,158.46,108.568,158.46,137.261z" class="color color-2" data-color="#9EB11E"></path>
	<path fill="#9EB11E" d="M323.521,276.36c0,24.506-19.868,44.371-44.366,44.371c-24.507,0-44.371-19.865-44.371-44.371
		c0-24.499,19.864-44.363,44.371-44.363C303.653,231.997,323.521,251.862,323.521,276.36z" class="color color-2" data-color="#9EB11E"></path>
	<path fill="#9EB11E" d="M345.952,191.729c0,19.165-15.537,34.702-34.698,34.702c-19.169,0-34.706-15.537-34.706-34.702
		c0-19.169,15.537-34.703,34.706-34.703C330.415,157.026,345.952,172.56,345.952,191.729z" class="color color-2" data-color="#9EB11E"></path>
	<path fill="#9EB11E" d="M127.221,246.766c0,23.321-18.905,42.226-42.234,42.226c-23.321,0-42.224-18.905-42.224-42.226
		c0-23.317,18.903-42.218,42.224-42.218C108.316,204.547,127.221,223.449,127.221,246.766z" class="color color-2" data-color="#9EB11E"></path>
</g>
<g>
	<path fill="#673A15" d="M204.921,238.228l83.73-38.586l23.271,8.091l-9.333-14.514l39.394-18.154l-138.668,41.355
		c-1.058-14.32-2.079-28.107-3.042-41.047l107.05-63.702l-46.251,17.894l-3.426-26.894l-8.676,31.576l-50.312,19.464
		c-3.254-43.587-5.505-73.226-5.505-73.226s-2.375,34.459-5.872,83.698L74.891,125.493l44.717,26.083l-13,11.567l25.208-4.447
		l53.63,31.282c-2.091,29.243-4.454,61.904-6.884,94.794l-77.466-32.798l-18.018-42.587l4.616,36.913l-36.401-15.412l125.398,79.075
		c-5.677,75.96-11.439,148.774-14.757,178.801c-1.652,14.944,60.868,15.021,60.141,0c-1.404-29.078-6.016-96.306-11.155-167.989
		l97.019-51.828l-32.383,9.497l-2.932-24.858l-11.962,29.226l-51.391,15.07C207.819,277.824,206.351,257.701,204.921,238.228z" class="color color-3" data-color="#673A15"></path>
</g>
</svg>